<?xml version="1.0" encoding="UTF-8"?>
<svg width="36px" height="23px" viewBox="0 0 36 23" version="1.1" xmlns="http://www.w3.org/2000/svg" xmlns:xlink="http://www.w3.org/1999/xlink">
    <!-- Generator: Sketch 64 (93537) - https://sketch.com -->
    <title>btn-scroll</title>
    <desc>Created with Sketch.</desc>
    <defs>
        <filter x="2.1%" y="-19.3%" width="95.8%" height="141.4%" filterUnits="objectBoundingBox" id="filter-1">
            <feGaussianBlur stdDeviation="1" in="SourceGraphic"></feGaussianBlur>
        </filter>
    </defs>
    <g id="Page-1" stroke="none" stroke-width="1" fill="none" fill-rule="evenodd">
        <g id="Desktop" transform="translate(-942.000000, -2957.000000)">
            <g id="hero-section-03" transform="translate(570.000000, 2250.000000)">
                <g id="btn-top" transform="translate(370.000000, 708.000000)">
                    <g id="btn-scroll" transform="translate(20.000000, 10.000000) scale(1, -1) translate(-20.000000, -10.000000) ">
                        <path d="M7.61521351,2.7069802 L17.3786031,9.69667956 C18.7708939,10.6934332 20.6432074,10.6934332 22.0354983,9.69667956 L31.7988879,2.7069802 C32.693771,2.06632526 33.2455058,1.12469178 33.4148886,0.118870903 C34.0558078,0.301232957 34.6263126,0.697501703 35.0244745,1.2536643 C35.9889491,2.60086688 35.6786867,4.47485148 34.3314841,5.43932606 L34.3314841,5.43932606 L21.4533864,14.6588733 C20.4091683,15.4064386 19.0049331,15.4064386 17.960715,14.6588733 L17.960715,14.6588733 L5.08261725,5.43932606 C4.29575876,4.87600691 3.82895295,3.96771625 3.82895295,3 C3.82895295,1.6314355 4.74535293,0.47690769 5.99799957,0.116569862 C6.17217112,1.15071814 6.74786102,2.08603467 7.61521351,2.7069802 Z" id="btn-scroll-shadow" fill-opacity="0.5" fill="#141414" filter="url(#filter-1)"></path>
                        <path d="M7.61521351,7.7069802 L17.3786031,14.6966796 C18.7708939,15.6934332 20.6432074,15.6934332 22.0354983,14.6966796 L31.7988879,7.7069802 C32.693771,7.06632526 33.2455058,6.12469178 33.4148886,5.1188709 C34.0558078,5.30123296 34.6263126,5.6975017 35.0244745,6.2536643 C35.9889491,7.60086688 35.6786867,9.47485148 34.3314841,10.4393261 L34.3314841,10.4393261 L21.4533864,19.6588733 C20.4091683,20.4064386 19.0049331,20.4064386 17.960715,19.6588733 L17.960715,19.6588733 L5.08261725,10.4393261 C4.29575876,9.87600691 3.82895295,8.96771625 3.82895295,8 C3.82895295,6.6314355 4.74535293,5.47690769 5.99799957,5.11656986 C6.17217112,6.15071814 6.74786102,7.08603467 7.61521351,7.7069802 Z" fill="#D8D8D8"></path>
                    </g>
                </g>
            </g>
        </g>
    </g>
</svg>